<svg class="svg-icon" style="width: 1em; height: 1em;vertical-align: middle;fill: currentColor;overflow: hidden;" viewBox="0 0 1024 1024" version="1.1" xmlns="http://www.w3.org/2000/svg"><path d="M810.666667 170.666667h-61.866667A131.413333 131.413333 0 0 0 725.333333 128a128 128 0 0 0-96-42.666667H395.52A128 128 0 0 0 298.666667 128a131.413333 131.413333 0 0 0-24.32 42.666667H213.333333a128 128 0 0 0-128 128v512a128 128 0 0 0 128 128h597.333334a128 128 0 0 0 128-128V298.666667a128 128 0 0 0-128-128z m-447.146667 14.506666A42.666667 42.666667 0 0 1 395.52 170.666667h232.96a42.666667 42.666667 0 0 1 32 14.506666 42.666667 42.666667 0 0 1 10.666667 33.28l-21.333334 170.666667a42.666667 42.666667 0 0 1-42.666666 37.546667h-69.973334l48.64-102.4a42.666667 42.666667 0 0 0-76.8-36.693334L442.453333 426.666667h-25.6a42.666667 42.666667 0 0 1-42.666666-37.546667l-21.333334-170.666667a42.666667 42.666667 0 0 1 10.666667-33.28zM853.333333 810.666667a42.666667 42.666667 0 0 1-42.666666 42.666666H213.333333a42.666667 42.666667 0 0 1-42.666666-42.666666V298.666667a42.666667 42.666667 0 0 1 42.666666-42.666667h58.453334l17.92 143.786667a128 128 0 0 0 128 112.213333h190.293333a128 128 0 0 0 128-112.213333L752.213333 256H810.666667a42.666667 42.666667 0 0 1 42.666666 42.666667z m-256-128h-170.666666a42.666667 42.666667 0 0 0 0 85.333333h170.666666a42.666667 42.666667 0 0 0 0-85.333333z"  /></svg>